<svg width="120" height="120" viewBox="0 0 120 120" fill="none" xmlns="http://www.w3.org/2000/svg">
<rect width="120" height="120" rx="24" fill="#0461FE"/>
<path d="M60.001 51.7183C62.0494 51.7183 64.0518 51.1108 65.755 49.9725C67.4582 48.8342 68.7857 47.2163 69.5696 45.3234C70.3535 43.4305 70.5586 41.3477 70.1589 39.3382C69.7593 37.3287 68.7729 35.4829 67.3245 34.0341C65.876 32.5854 64.0306 31.5988 62.0215 31.1991C60.0125 30.7993 57.93 31.0045 56.0376 31.7885C54.1451 32.5726 52.5275 33.9004 51.3895 35.6039C50.2515 37.3075 49.644 39.3103 49.644 41.3592C49.6486 44.1052 50.7412 46.7374 52.6825 48.6792C54.6238 50.6209 57.2556 51.7138 60.001 51.7183ZM60.001 34.6257C60.296 34.6257 60.5843 34.7132 60.8296 34.8771C61.0749 35.041 61.266 35.274 61.3789 35.5466C61.4918 35.8192 61.5213 36.1191 61.4638 36.4085C61.4062 36.6979 61.2642 36.9637 61.0556 37.1723C60.847 37.3809 60.5813 37.523 60.292 37.5805C60.0027 37.6381 59.7028 37.6086 59.4303 37.4956C59.1577 37.3827 58.9248 37.1915 58.7609 36.9462C58.597 36.7009 58.5096 36.4125 58.5096 36.1175C58.5114 35.7224 58.6691 35.344 58.9484 35.0647C59.2277 34.7853 59.606 34.6276 60.001 34.6257ZM58.6339 46.0104H58.9653V40.7997C58.9653 40.525 59.0744 40.2615 59.2686 40.0672C59.4629 39.8729 59.7263 39.7638 60.001 39.7638C60.2757 39.7638 60.5391 39.8729 60.7334 40.0672C60.9276 40.2615 61.0367 40.525 61.0367 40.7997V46.0104H61.3681C61.6428 46.0104 61.9063 46.1195 62.1005 46.3138C62.2947 46.5081 62.4039 46.7716 62.4039 47.0463C62.4039 47.3211 62.2947 47.5846 62.1005 47.7789C61.9063 47.9731 61.6428 48.0823 61.3681 48.0823H58.6339C58.3592 48.0823 58.0957 47.9731 57.9015 47.7789C57.7073 47.5846 57.5981 47.3211 57.5981 47.0463C57.5981 46.7716 57.7073 46.5081 57.9015 46.3138C58.0957 46.1195 58.3592 46.0104 58.6339 46.0104Z" fill="white"/>
<path d="M48.6162 78.647L47.0947 82.7886H73.0238L71.6059 78.647H48.6162Z" fill="white"/>
<path d="M88.8449 66.2624C88.5983 65.3247 88.0792 64.4811 87.3535 63.8383C85.3028 62.1291 82.9932 60.0987 81.8643 58.9696H85.1371C85.8829 58.9696 86.5982 58.6733 87.1255 58.1458C87.6528 57.6183 87.9491 56.903 87.9491 56.157C87.9491 55.4111 87.6528 54.6957 87.1255 54.1682C86.5982 53.6408 85.8829 53.3445 85.1371 53.3445C83.5836 53.4273 80.6939 52.9922 79.3889 53.9867C78.4672 51.6663 77.359 48.8278 76.5097 46.6317C76.153 45.7667 75.5672 45.0154 74.8153 44.4586C74.0634 43.9019 73.174 43.5608 72.2427 43.4722C72.1315 44.1676 71.9546 44.8509 71.7145 45.5129H71.7248C72.3346 45.5079 72.932 45.6845 73.4411 46.0203C73.9501 46.356 74.3478 46.8357 74.5834 47.3983C74.8527 48.1338 79.1715 58.8245 79.2544 58.9695H40.7472C40.83 58.8245 45.1283 48.1649 45.4078 47.4294C45.6399 46.8598 46.0372 46.3728 46.5485 46.0312C47.0599 45.6897 47.6618 45.5091 48.2767 45.5129H48.2871C48.0469 44.8509 47.87 44.1676 47.7589 43.4722C46.8241 43.5629 45.9317 43.907 45.178 44.4674C44.4243 45.0278 43.8377 45.7833 43.4815 46.6525C42.6425 48.8383 41.5343 51.6663 40.6126 53.9868C39.318 52.982 36.387 53.4378 34.8645 53.3445C34.1238 53.3523 33.4161 53.6521 32.8951 54.1787C32.3741 54.7053 32.0819 55.4162 32.0819 56.1571C32.0819 56.898 32.3741 57.6089 32.8951 58.1355C33.4161 58.6621 34.1238 58.9619 34.8645 58.9697H38.1373C36.998 60.1091 34.6884 62.1396 32.5963 63.8902C31.9 64.5256 31.4034 65.3498 31.167 66.2625C30.8667 66.5215 31.0738 76.9739 31.022 77.6058C31.0193 78.6138 31.3109 79.6007 31.861 80.4453C32.4111 81.29 33.1958 81.9556 34.1187 82.3606C34.7736 82.6402 35.4781 82.7847 36.1902 82.7853H44.89L46.92 77.2535C46.9926 77.0534 47.1249 76.8805 47.2991 76.7582C47.4732 76.6359 47.6807 76.5701 47.8935 76.5698H72.3463C72.5634 76.5692 72.7752 76.6369 72.9518 76.7633C73.1283 76.8897 73.2607 77.0685 73.3302 77.2742L75.2152 82.7853H83.8114C84.5235 82.7846 85.228 82.6402 85.8829 82.3606C86.8058 81.9544 87.5908 81.2888 88.1424 80.4447C88.694 79.6005 88.9885 78.6142 88.99 77.6057C88.9277 76.9427 89.1245 66.5421 88.8449 66.2624ZM47.0442 71.8874C46.9576 72.054 46.8267 72.1935 46.6659 72.2904C46.505 72.3872 46.3206 72.4378 46.1328 72.4365H39.2972C37.924 72.436 36.6071 71.8901 35.6361 70.9188C34.665 69.9476 34.1193 68.6304 34.1188 67.2569C34.1196 66.9824 34.2289 66.7194 34.423 66.5253C34.6171 66.3311 34.88 66.2218 35.1545 66.221H43.3675C43.537 66.2216 43.7038 66.2635 43.8535 66.3429C44.0033 66.4223 44.1315 66.5368 44.2272 66.6768L46.9925 70.8205C47.0992 70.976 47.1605 71.1582 47.1697 71.3466C47.1788 71.535 47.1354 71.7223 47.0442 71.8874ZM72.5224 67.837L69.7674 71.9807C69.6717 72.1206 69.5435 72.2352 69.3937 72.3146C69.244 72.394 69.0772 72.4358 68.9077 72.4365H51.1041C50.9347 72.4358 50.7679 72.394 50.6182 72.3146C50.4684 72.2352 50.3402 72.1206 50.2446 71.9807L47.4792 67.837C47.3754 67.6808 47.3158 67.4994 47.3067 67.312C47.2976 67.1246 47.3393 66.9383 47.4274 66.7727C47.5155 66.6071 47.6467 66.4684 47.8071 66.3713C47.9676 66.2741 48.1513 66.2222 48.3388 66.221H71.6627C71.85 66.2227 72.0334 66.275 72.1935 66.3723C72.3537 66.4695 72.4846 66.6081 72.5726 66.7735C72.6606 66.9389 72.7024 67.125 72.6935 67.3122C72.6847 67.4993 72.6256 67.6806 72.5224 67.837ZM80.7043 72.4365H73.8688C73.6823 72.4326 73.5002 72.3791 73.3414 72.2814C73.1825 72.1837 73.0525 72.0454 72.9649 71.8807C72.8773 71.716 72.8353 71.5309 72.843 71.3446C72.8508 71.1582 72.9081 70.9773 73.0091 70.8204L75.7744 66.6768C75.8701 66.5369 75.9983 66.4223 76.148 66.3429C76.2978 66.2635 76.4646 66.2216 76.6341 66.221H84.8471C85.1216 66.2218 85.3845 66.3312 85.5786 66.5253C85.7727 66.7194 85.882 66.9824 85.8828 67.2569C85.8823 68.6305 85.3366 69.9476 84.3655 70.9189C83.3945 71.8901 82.0776 72.436 80.7043 72.4365Z" fill="white"/>
<path d="M32.0544 83.5645V85.8939C32.0569 86.7169 32.3848 87.5055 32.9667 88.0875C33.5485 88.6695 34.337 88.9975 35.1598 88.9999H41.3705C42.1933 88.9975 42.9817 88.6695 43.5636 88.0875C44.1454 87.5055 44.4734 86.7169 44.4758 85.8939V84.8586H36.1949C34.7145 84.8633 33.2687 84.4114 32.0544 83.5645Z" fill="white"/>
<path d="M75.5291 84.8586V85.8939C75.5315 86.7169 75.8594 87.5055 76.4412 88.0875C77.0231 88.6695 77.8115 88.9975 78.6344 88.9999H84.845C85.6679 88.9975 86.4563 88.6695 87.0382 88.0875C87.62 87.5055 87.948 86.7169 87.9504 85.8939V83.5645C86.7353 84.4098 85.29 84.8616 83.8099 84.8586H75.5291Z" fill="white"/>
</svg>
