<svg width="48" height="48" viewBox="0 0 48 48" fill="none" xmlns="http://www.w3.org/2000/svg">
<g filter="url(#filter0_b_989_1218)">
<rect width="48" height="48" rx="8" fill="url(#paint0_linear_989_1218)"/>
<rect x="0.5" y="0.5" width="47" height="47" rx="7.5" stroke="#0461FE" stroke-opacity="0.2"/>
</g>
<path fill-rule="evenodd" clip-rule="evenodd" d="M12.7507 34.3796C9.97284 34.3794 7.3758 34.3791 6.37712 34.3785C6.26705 34.3785 6.16244 34.3304 6.09083 34.2468C6.01914 34.1632 5.98758 34.0524 6.00446 33.9437C6.62109 30.1828 9.88518 27.3128 13.8192 27.3128C14.4908 27.3128 15.1429 27.3963 15.7655 27.5536C14.1748 29.2266 13.0815 31.3772 12.7222 33.7681C12.7217 33.7711 12.7213 33.7741 12.7208 33.7771C12.6918 33.9803 12.7028 34.1847 12.7507 34.3796ZM32.4622 27.5533C33.0842 27.3962 33.7355 27.3128 34.4064 27.3128C38.3425 27.3128 41.6067 30.1829 42.2228 33.9437C42.2396 34.0528 42.2079 34.1639 42.136 34.2477C42.0641 34.3316 41.9591 34.3798 41.8487 34.3798C40.8503 34.3798 38.2537 34.3798 35.4762 34.3797C35.5239 34.185 35.535 33.9808 35.5061 33.7777C35.5057 33.7746 35.5052 33.7716 35.5048 33.7685C35.1462 31.3774 34.053 29.2265 32.4622 27.5533ZM13.8192 26.5558C11.6142 26.5558 9.81683 24.7562 9.81683 22.5512C9.81683 20.3461 11.6142 18.5466 13.8192 18.5466C16.0264 18.5466 17.8238 20.3461 17.8238 22.5512C17.8238 24.7562 16.0264 26.5558 13.8192 26.5558ZM34.4064 26.5558C32.2013 26.5558 30.4039 24.7562 30.4039 22.5512C30.4039 20.3461 32.2013 18.5466 34.4064 18.5466C36.6135 18.5466 38.4109 20.3461 38.4109 22.5512C38.4109 24.7562 36.6135 26.5558 34.4064 26.5558ZM13.9199 33.9481C14.6655 28.9864 18.945 25.1815 24.1128 25.1815C29.2833 25.1815 33.563 28.9864 34.307 33.9481C34.3224 34.0567 34.29 34.1666 34.218 34.2494C34.1461 34.3323 34.0419 34.3798 33.9322 34.3798C31.2633 34.3798 16.9632 34.3798 14.2936 34.3789C14.1842 34.3789 14.0801 34.3314 14.0084 34.2487C13.9368 34.1661 13.9044 34.0564 13.9199 33.9481ZM24.1128 24.4245C21.2427 24.4245 18.9033 22.0823 18.9033 19.2123C18.9033 16.3422 21.2427 14 24.1128 14C26.9856 14 29.325 16.3422 29.325 19.2123C29.325 22.0823 26.9856 24.4245 24.1128 24.4245Z" fill="white"/>
<defs>
<filter id="filter0_b_989_1218" x="-50" y="-50" width="148" height="148" filterUnits="userSpaceOnUse" color-interpolation-filters="sRGB">
<feFlood flood-opacity="0" result="BackgroundImageFix"/>
<feGaussianBlur in="BackgroundImageFix" stdDeviation="25"/>
<feComposite in2="SourceAlpha" operator="in" result="effect1_backgroundBlur_989_1218"/>
<feBlend mode="normal" in="SourceGraphic" in2="effect1_backgroundBlur_989_1218" result="shape"/>
</filter>
<linearGradient id="paint0_linear_989_1218" x1="48" y1="0" x2="-7.43589" y2="13.2508" gradientUnits="userSpaceOnUse">
<stop stop-color="#0461FE"/>
<stop offset="1" stop-color="#023A98"/>
</linearGradient>
</defs>
</svg>
