<svg width="48" height="48" viewBox="0 0 48 48" fill="none" xmlns="http://www.w3.org/2000/svg">
<g filter="url(#filter0_b_989_1202)">
<rect width="48" height="48" rx="8" fill="url(#paint0_linear_989_1202)"/>
<rect x="0.5" y="0.5" width="47" height="47" rx="7.5" stroke="#0461FE" stroke-opacity="0.2"/>
</g>
<path d="M34.5203 34.3835C34.4235 33.8963 33.9445 33.3893 33.4501 33.2351C33.1498 33.1421 27.307 32.7549 24.0006 32.7593C20.6942 32.7549 14.8514 33.1421 14.5512 33.2351C14.059 33.3904 13.5777 33.8974 13.4809 34.3835C13.4064 34.789 13.3827 35.2021 13.4104 35.6135C13.4341 36.0248 13.5076 36.4317 13.6291 36.8253C13.7839 37.2973 14.3023 37.743 14.7902 37.848C15.0926 37.9114 20.8424 38 24.0006 38C27.1588 38 32.9087 37.9114 33.2089 37.848C33.6967 37.743 34.2152 37.2973 34.3699 36.8253C34.4915 36.4317 34.5649 36.0248 34.5887 35.6135C34.6171 35.2022 34.5942 34.7891 34.5203 34.3835Z" fill="white"/>
<path d="M25.1643 13.0811V11.1632C25.1643 10.5208 24.6435 10 24.0011 10C23.3587 10 22.8379 10.5208 22.8379 11.1632V13.0811C22.8379 13.7235 23.3587 14.2443 24.0011 14.2443C24.6435 14.2443 25.1643 13.7235 25.1643 13.0811Z" fill="white"/>
<path d="M16.942 15.5218L15.5861 14.1659C15.1319 13.7117 14.3955 13.7117 13.9413 14.1659C13.4871 14.6201 13.4871 15.3565 13.9413 15.8107L15.2972 17.1666C15.7514 17.6208 16.4878 17.6208 16.942 17.1666C17.3962 16.7124 17.3962 15.976 16.942 15.5218Z" fill="white"/>
<path d="M32.7074 17.1669L34.0634 15.8109C34.5175 15.3567 34.5175 14.6203 34.0634 14.1661C33.6092 13.712 32.8728 13.7119 32.4186 14.1661L31.0626 15.5221C30.6084 15.9763 30.6084 16.7127 31.0626 17.1669C31.5168 17.621 32.2532 17.621 32.7074 17.1669Z" fill="white"/>
<path d="M34.9189 25.3914H36.8368C37.4792 25.3914 38 24.8706 38 24.2282C38 23.5857 37.4792 23.065 36.8368 23.065H34.9189C34.2765 23.065 33.7557 23.5857 33.7557 24.2282C33.7557 24.8706 34.2765 25.3914 34.9189 25.3914Z" fill="white"/>
<path d="M11.1633 25.3906H13.0812C13.7236 25.3906 14.2444 24.8698 14.2444 24.2274C14.2444 23.585 13.7236 23.0642 13.0812 23.0642H11.1633C10.5209 23.0642 10.0001 23.585 10.0001 24.2274C10.0001 24.8698 10.5209 25.3906 11.1633 25.3906Z" fill="white"/>
<path d="M32.2157 23.9197C32.1474 19.5359 28.3242 15.99 24.0006 15.99C19.677 15.99 15.8521 19.5387 15.7854 23.9224C15.7639 26.4719 15.8098 29.0211 15.9232 31.5699C16.5396 31.5251 17.2724 31.478 18.0298 31.4354C20.3376 31.3047 22.4934 31.2298 23.9442 31.2298H24.0536C25.5045 31.2298 27.663 31.3047 29.9686 31.4354C30.726 31.4786 31.4589 31.5251 32.0752 31.5699C32.1897 29.02 32.2365 26.4699 32.2157 23.9197ZM24.0006 28.6086C23.7579 28.6086 23.5206 28.5366 23.3188 28.4018C23.117 28.2669 22.9597 28.0753 22.8668 27.851C22.7739 27.6268 22.7496 27.38 22.797 27.142C22.8443 26.9039 22.9612 26.6853 23.1328 26.5136C23.3044 26.342 23.5231 26.2251 23.7612 26.1778C23.9992 26.1304 24.246 26.1547 24.4702 26.2476C24.6944 26.3405 24.8861 26.4978 25.0209 26.6996C25.1558 26.9014 25.2278 27.1387 25.2278 27.3814C25.2278 27.7069 25.0985 28.019 24.8683 28.2491C24.6382 28.4793 24.326 28.6086 24.0006 28.6086ZM25.2901 20.0352C25.2327 21.8558 25.1753 22.4962 25.1184 24.3194C25.1056 24.6074 24.9823 24.8792 24.7741 25.0785C24.5658 25.2777 24.2888 25.3889 24.0006 25.3889C23.7124 25.3889 23.4353 25.2777 23.2271 25.0785C23.0188 24.8792 22.8955 24.6074 22.8828 24.3194C22.8281 22.4983 22.7685 21.8585 22.711 20.0352C22.6892 19.4375 23.2661 18.9311 24.0006 18.9311C24.735 18.9311 25.3131 19.4375 25.2901 20.0352Z" fill="white"/>
<defs>
<filter id="filter0_b_989_1202" x="-50" y="-50" width="148" height="148" filterUnits="userSpaceOnUse" color-interpolation-filters="sRGB">
<feFlood flood-opacity="0" result="BackgroundImageFix"/>
<feGaussianBlur in="BackgroundImageFix" stdDeviation="25"/>
<feComposite in2="SourceAlpha" operator="in" result="effect1_backgroundBlur_989_1202"/>
<feBlend mode="normal" in="SourceGraphic" in2="effect1_backgroundBlur_989_1202" result="shape"/>
</filter>
<linearGradient id="paint0_linear_989_1202" x1="48" y1="0" x2="-7.43589" y2="13.2508" gradientUnits="userSpaceOnUse">
<stop stop-color="#0461FE"/>
<stop offset="1" stop-color="#023A98"/>
</linearGradient>
</defs>
</svg>
