<svg width="48" height="48" viewBox="0 0 48 48" fill="none" xmlns="http://www.w3.org/2000/svg">
<g filter="url(#filter0_b_989_1226)">
<rect width="48" height="48" rx="8" fill="url(#paint0_linear_989_1226)"/>
<rect x="0.5" y="0.5" width="47" height="47" rx="7.5" stroke="#0461FE" stroke-opacity="0.2"/>
</g>
<path d="M23.679 37.8737L22.1807 36.3755C20.1251 34.3198 20.1425 30.975 22.2156 28.9541L23.679 27.5256C22.9995 27.4559 22.4943 27.4211 21.9368 27.4211C17.2854 27.4211 8 29.7555 8 34.3895V37.8737H23.679ZM21.9368 23.9368C25.7869 23.9368 28.9053 20.8185 28.9053 16.9684C28.9053 13.1184 25.7869 10 21.9368 10C18.0868 10 14.9684 13.1184 14.9684 16.9684C14.9684 20.8185 18.0868 23.9368 21.9368 23.9368Z" fill="white"/>
<path d="M30.961 37.4904C30.2816 38.1699 29.1666 38.1699 28.4872 37.4904L24.881 33.8494C24.219 33.17 24.219 32.0899 24.881 31.4279L24.8984 31.4105C25.5779 30.7311 26.6754 30.7311 27.3374 31.4105L29.7241 33.7972L37.4416 26.0274C38.121 25.348 39.2186 25.348 39.898 26.0274L39.9154 26.0448C40.5774 26.7242 40.5774 27.8043 39.9154 28.4663L30.961 37.4904Z" fill="white"/>
<defs>
<filter id="filter0_b_989_1226" x="-50" y="-50" width="148" height="148" filterUnits="userSpaceOnUse" color-interpolation-filters="sRGB">
<feFlood flood-opacity="0" result="BackgroundImageFix"/>
<feGaussianBlur in="BackgroundImageFix" stdDeviation="25"/>
<feComposite in2="SourceAlpha" operator="in" result="effect1_backgroundBlur_989_1226"/>
<feBlend mode="normal" in="SourceGraphic" in2="effect1_backgroundBlur_989_1226" result="shape"/>
</filter>
<linearGradient id="paint0_linear_989_1226" x1="48" y1="0" x2="-7.43589" y2="13.2508" gradientUnits="userSpaceOnUse">
<stop stop-color="#0461FE"/>
<stop offset="1" stop-color="#023A98"/>
</linearGradient>
</defs>
</svg>
