<svg width="40" height="40" viewBox="0 0 40 40" fill="none" xmlns="http://www.w3.org/2000/svg">
<rect width="40" height="40" rx="8" fill="#0461FE"/>
<path d="M14.3832 20.7824H16.9871V31.6129C16.9871 31.8267 17.1586 32 17.3703 32H21.7855C21.9971 32 22.1686 31.8267 22.1686 31.6129V20.8334H25.1621C25.3568 20.8334 25.5205 20.6859 25.5427 20.4905L25.9974 16.5033C26.0099 16.3936 25.9755 16.2837 25.9028 16.2014C25.8301 16.119 25.726 16.0719 25.6168 16.0719H22.1688V13.5725C22.1688 12.819 22.5703 12.437 23.3624 12.437C23.4752 12.437 25.6168 12.437 25.6168 12.437C25.8285 12.437 26 12.2636 26 12.0499V8.38996C26 8.17613 25.8285 8.00286 25.6168 8.00286H22.5099C22.4879 8.00178 22.4393 8 22.3675 8C21.8284 8 19.9546 8.10692 18.4744 9.48266C16.8343 11.0072 17.0623 12.8326 17.1168 13.1491V16.0718H14.3832C14.1715 16.0718 14 16.2451 14 16.4589V20.3952C14 20.6091 14.1715 20.7824 14.3832 20.7824Z" fill="white"/>
</svg>
