<svg width="40" height="40" viewBox="0 0 40 40" fill="none" xmlns="http://www.w3.org/2000/svg">
<rect width="40" height="40" rx="8" fill="#0461FE"/>
<path d="M25.5034 8H14.4966C10.9143 8 8 10.9143 8 14.4966V25.5036C8 29.0857 10.9143 32 14.4966 32H25.5036C29.0857 32 32 29.0857 32 25.5036V14.4966C32 10.9143 29.0857 8 25.5034 8ZM20 26.5623C16.3815 26.5623 13.4377 23.6185 13.4377 20C13.4377 16.3815 16.3815 13.4377 20 13.4377C23.6185 13.4377 26.5623 16.3815 26.5623 20C26.5623 23.6185 23.6185 26.5623 20 26.5623ZM26.7192 14.9853C25.6499 14.9853 24.7802 14.1155 24.7802 13.0462C24.7802 11.9769 25.6499 11.1069 26.7192 11.1069C27.7886 11.1069 28.6585 11.9769 28.6585 13.0462C28.6585 14.1155 27.7886 14.9853 26.7192 14.9853Z" fill="white"/>
<path d="M20.0001 14.8447C17.1575 14.8447 14.8447 17.1573 14.8447 20.0001C14.8447 22.8426 17.1575 25.1554 20.0001 25.1554C22.8428 25.1554 25.1554 22.8426 25.1554 20.0001C25.1554 17.1573 22.8428 14.8447 20.0001 14.8447Z" fill="white"/>
<path d="M26.7192 12.5142C26.4259 12.5142 26.1871 12.7529 26.1871 13.0463C26.1871 13.3396 26.4259 13.5784 26.7192 13.5784C27.0128 13.5784 27.2515 13.3398 27.2515 13.0463C27.2515 12.7527 27.0128 12.5142 26.7192 12.5142Z" fill="white"/>
</svg>
