<svg width="18" height="20" viewBox="0 0 18 20" fill="none" xmlns="http://www.w3.org/2000/svg">
<path d="M11.3055 3.24623C11.957 2.40498 12.45 1.21499 12.2715 0C11.2069 0.0737495 9.96263 0.756245 9.23752 1.64499C8.57607 2.45123 8.03192 3.64872 8.24409 4.81247C9.40726 4.84872 10.6091 4.14997 11.3055 3.24623Z" fill="white"/>
<path d="M16.4786 6.70995C15.4564 5.42621 14.0199 4.68121 12.6633 4.68121C10.8724 4.68121 10.1148 5.53996 8.87056 5.53996C7.58758 5.53996 6.61286 4.68371 5.06405 4.68371C3.5427 4.68371 1.92275 5.61496 0.89562 7.20745C-0.548355 9.44993 -0.301244 13.6662 2.03882 17.2574C2.87625 18.5424 3.99449 19.9874 5.45718 19.9999C6.75888 20.0124 7.12581 19.1636 8.88928 19.1549C10.6527 19.1449 10.9872 20.0111 12.2864 19.9974C13.7504 19.9861 14.9298 18.3849 15.7672 17.0999C16.3675 16.1786 16.5909 15.7149 17.0564 14.6749C13.6705 13.3837 13.1276 8.56119 16.4786 6.70995Z" fill="white"/>
</svg>
