<svg width="40" height="40" viewBox="0 0 40 40" fill="none" xmlns="http://www.w3.org/2000/svg">
<rect width="40" height="40" rx="8" fill="#0461FE"/>
<path d="M31.994 32.0002L32 31.9992V23.1972C32 18.8912 31.073 15.5742 26.039 15.5742C23.619 15.5742 21.995 16.9022 21.332 18.1612H21.262V15.9762H16.489V31.9992H21.459V24.0652C21.459 21.9762 21.855 19.9562 24.442 19.9562C26.991 19.9562 27.029 22.3402 27.029 24.1992V32.0002H31.994Z" fill="white"/>
<path d="M8.396 15.9771H13.372V32.0001H8.396V15.9771Z" fill="white"/>
<path d="M10.882 8C9.291 8 8 9.291 8 10.882C8 12.473 9.291 13.791 10.882 13.791C12.473 13.791 13.764 12.473 13.764 10.882C13.763 9.291 12.472 8 10.882 8Z" fill="white"/>
</svg>
