<svg width="164" height="36" viewBox="0 0 164 36" fill="none" xmlns="http://www.w3.org/2000/svg">
<path d="M0 7.3719V5.886C0 3.54885 1.89949 1.65509 4.24182 1.65509H5.79262V7.37275H8.02043V11.5436H2.65029L5.79262 12.196V17.5862C5.79262 18.8072 6.21765 19.8446 7.06771 20.6993C7.91777 21.5539 8.97483 21.9948 10.2397 22.0219V27.8004C7.34343 27.7328 4.91202 26.719 2.94721 24.7584C0.982404 22.7987 0 20.4082 0 17.5862V17.3619C0.0135738 17.3349 0.0203612 17.3078 0.0203612 17.2807H0V11.5427" fill="#050505"/>
<path d="M20.7093 1.45624H10.1421C10.0598 1.45624 9.99365 1.52224 9.99365 1.60432V7.10028C9.99365 7.18236 10.0598 7.24836 10.1421 7.24836H19.8822C20.3394 7.24836 20.7102 7.61814 20.7102 8.07424V12.6656C20.7102 12.7477 20.7764 12.8137 20.8586 12.8137H26.3696C26.4519 12.8137 26.5181 12.7477 26.5181 12.6656V2.81521C26.5181 2.06464 25.9081 1.45624 25.1556 1.45624H20.711H20.7093Z" fill="#0461FE"/>
<path d="M20.7094 27.8004H13.1488C13.0759 27.8004 13.0156 27.7412 13.0156 27.6676V22.1403C13.0156 22.0675 13.075 22.0074 13.1488 22.0074H19.8976C20.3463 22.0074 20.7103 21.6444 20.7103 21.1968V15.6255C20.7103 15.5528 20.7697 15.4927 20.8435 15.4927H26.385C26.4579 15.4927 26.5182 15.5519 26.5182 15.6255V26.4558C26.5182 27.1979 25.915 27.7996 25.171 27.7996H20.7111L20.7094 27.8004Z" fill="#0461FE"/>
<path d="M42.7185 6.28964H34.7804V1.10931H56.8887V6.28964H48.9506V27.4535H42.7185V6.28964Z" fill="#050505"/>
<path d="M64.16 8.50921V10.9141C65.2731 9.02707 67.1649 7.80603 69.2417 7.80603C69.984 7.80603 70.7628 7.99134 71.5043 8.28666V13.2081C70.4659 12.7638 69.2044 12.5421 68.3883 12.5421C65.9772 12.5421 64.3823 14.54 64.3823 17.3891V27.4527H58.8179V8.50921H64.16Z" fill="#050505"/>
<path d="M89.4208 8.50921H94.9852V27.4527H89.4208V24.8253C87.937 26.934 85.6744 28.1923 82.9664 28.1923C77.6243 28.1923 73.8779 23.974 73.8779 17.9805C73.8779 11.987 77.6243 7.7688 82.9664 7.7688C85.6744 7.7688 87.937 9.02707 89.4208 11.1358V8.50836V8.50921ZM89.3835 17.9814C89.3835 14.9106 87.3058 12.653 84.4129 12.653C81.52 12.653 79.4423 14.9097 79.4423 17.9814C79.4423 21.053 81.52 23.3098 84.4129 23.3098C87.3058 23.3098 89.3835 21.053 89.3835 17.9814Z" fill="#050505"/>
<path d="M99.8074 0H105.372V15.5029L111.789 8.51006H118.54L110.305 17.3899L118.8 27.4536H112.011L105.371 19.3133V27.4536H99.8065V0H99.8074Z" fill="#050505"/>
<path d="M122.473 31.2276C123.141 31.4493 124.068 31.5974 124.736 31.5974C127.109 31.5974 128.038 29.9321 128.89 27.6381L119.913 8.50928H125.996L131.153 20.7188L135.382 8.50928H141.168L133.823 28.1187C132.043 33.0029 130.002 36.0001 126.145 36.0001C124.958 36.0001 123.511 35.7411 122.472 35.3341V31.2267L122.473 31.2276Z" fill="#050505"/>
<path d="M163.5 17.9814C163.5 24.0121 159.197 28.1931 152.928 28.1931C146.658 28.1931 142.393 24.0121 142.393 17.9814C142.393 11.9506 146.696 7.76965 152.928 7.76965C159.16 7.76965 163.5 11.9134 163.5 17.9814ZM157.899 17.9814C157.899 14.8734 155.859 12.653 152.929 12.653C149.998 12.653 147.994 14.8734 147.994 17.9814C147.994 21.0894 150.035 23.3098 152.929 23.3098C155.822 23.3098 157.899 21.0894 157.899 17.9814Z" fill="#050505"/>
</svg>
