<svg width="48" height="48" viewBox="0 0 48 48" fill="none" xmlns="http://www.w3.org/2000/svg">
<g filter="url(#filter0_b_989_1194)">
<rect width="48" height="48" rx="8" fill="url(#paint0_linear_989_1194)"/>
<rect x="0.5" y="0.5" width="47" height="47" rx="7.5" stroke="#0461FE" stroke-opacity="0.2"/>
</g>
<path d="M25.7501 16.125C25.7502 15.8384 25.8641 15.5635 26.0667 15.3608C26.2694 15.1581 26.5443 15.0442 26.8309 15.0441C27.6307 15.0967 28.4113 15.3117 29.1252 15.6762C29.839 16.0406 30.4711 16.5467 30.9828 17.1637C32.083 18.2311 32.7802 19.6462 32.9559 21.1691C32.9559 21.4557 32.842 21.7306 32.6393 21.9333C32.4366 22.136 32.1617 22.2499 31.875 22.2499C31.5884 22.2499 31.3135 22.136 31.1108 21.9333C30.9081 21.7306 30.7942 21.4557 30.7942 21.1691C30.5987 20.2049 30.1141 19.3233 29.4051 18.6414C28.7688 17.8434 27.8442 17.3278 26.8309 17.2058C26.5443 17.2057 26.2694 17.0918 26.0668 16.8891C25.8641 16.6865 25.7502 16.4116 25.7501 16.125ZM26.8309 12.1618C29.219 12.1645 31.5084 13.1143 33.1971 14.8029C34.8857 16.4915 35.8355 18.781 35.8382 21.1691C35.8377 21.3113 35.8653 21.4523 35.9194 21.5839C35.9735 21.7155 36.053 21.8351 36.1535 21.9359C36.2539 22.0367 36.3732 22.1166 36.5046 22.1712C36.636 22.2258 36.7769 22.2538 36.9191 22.2538C37.0614 22.2538 37.2023 22.2258 37.3337 22.1712C37.4651 22.1166 37.5844 22.0367 37.6848 21.9359C37.7852 21.8351 37.8648 21.7155 37.9189 21.5839C37.973 21.4523 38.0005 21.3113 38 21.1691C37.9967 18.2078 36.8189 15.3689 34.725 13.275C32.6311 11.1811 29.7921 10.0033 26.8309 10C26.5449 10.001 26.271 10.1154 26.0691 10.318C25.8672 10.5206 25.7539 10.7949 25.7539 11.0809C25.7539 11.3669 25.8672 11.6412 26.0691 11.8438C26.271 12.0464 26.5449 12.1608 26.8309 12.1618ZM22.6583 26.1305C22.5138 25.9915 22.3684 25.8507 22.222 25.7079C21.494 24.9659 20.822 24.2239 20.1921 23.4959C19.7021 22.9414 19.2661 22.3414 18.8901 21.7039C18.8621 21.6199 18.8201 21.5359 18.7781 21.4239C18.7504 21.3188 18.7363 21.2106 18.7361 21.1019C18.7326 20.9982 18.7507 20.8948 18.7893 20.7984C18.8278 20.702 18.886 20.6147 18.9601 20.5419L20.0241 19.436C20.3286 19.1411 20.5923 18.8068 20.8081 18.442C20.9964 18.1443 21.0981 17.8002 21.1021 17.448C21.0944 17.1531 21.0277 16.8628 20.9061 16.594C20.7587 16.2464 20.5708 15.9175 20.3461 15.614L17.0981 11.036C16.8626 10.6943 16.5383 10.4232 16.1601 10.252C15.8056 10.0846 15.4182 9.99849 15.0261 10C14.4774 10.0134 13.9369 10.1367 13.4367 10.3628C12.9365 10.5888 12.4868 10.913 12.1141 11.316C11.4103 11.966 10.8603 12.7647 10.5042 13.654C10.1652 14.5142 9.99414 15.4314 10.0002 16.356C10.0264 17.9341 10.3692 19.4908 11.0082 20.934C11.744 22.6216 12.6642 24.2227 13.7521 25.708C14.9367 27.3304 16.2424 28.8608 17.6581 30.286C17.809 30.4368 17.9613 30.5863 18.115 30.7344C18.3799 30.9898 18.7344 31.131 19.1023 31.1278C19.4702 31.1247 19.8222 30.9773 20.0827 30.7174L22.6755 28.1245C22.8072 27.9935 22.9114 27.8375 22.982 27.6657C23.0525 27.4938 23.0881 27.3096 23.0865 27.1239C23.0849 26.9381 23.0462 26.7546 22.9726 26.584C22.8991 26.4134 22.7922 26.2592 22.6583 26.1305ZM36.9641 30.874L32.3301 27.584C32.0232 27.3686 31.6948 27.1856 31.3501 27.038C31.0802 26.9217 30.79 26.8599 30.4961 26.856C30.1436 26.858 29.799 26.96 29.5021 27.15C29.1289 27.3596 28.7892 27.6239 28.4941 27.934L27.4301 28.984C27.3562 29.0613 27.267 29.1224 27.1682 29.1634C27.0693 29.2044 26.9631 29.2243 26.8561 29.222C26.737 29.225 26.6183 29.206 26.5061 29.166C26.4081 29.124 26.3241 29.082 26.2541 29.054C25.8917 28.8574 25.5453 28.6327 25.2181 28.382L20.6401 32.9599C21.1581 33.3939 21.7041 33.7999 22.2501 34.2059C23.7455 35.309 25.3612 36.2389 27.0661 36.9779C28.5028 37.6232 30.0554 37.9708 31.6301 37.9999C32.5513 38.004 33.4644 37.828 34.3181 37.4819C34.3321 37.4819 34.3461 37.4679 34.3601 37.4679C35.2405 37.0981 36.0256 36.5332 36.6561 35.8159C37.0428 35.39 37.3636 34.9087 37.6081 34.3879C37.6607 34.2785 37.7074 34.1664 37.7481 34.0519C37.8854 33.6702 37.9565 33.2677 37.9581 32.8619C37.9554 32.4868 37.8793 32.1158 37.7341 31.77C37.5673 31.4045 37.3003 31.0938 36.9641 30.874Z" fill="white"/>
<defs>
<filter id="filter0_b_989_1194" x="-50" y="-50" width="148" height="148" filterUnits="userSpaceOnUse" color-interpolation-filters="sRGB">
<feFlood flood-opacity="0" result="BackgroundImageFix"/>
<feGaussianBlur in="BackgroundImageFix" stdDeviation="25"/>
<feComposite in2="SourceAlpha" operator="in" result="effect1_backgroundBlur_989_1194"/>
<feBlend mode="normal" in="SourceGraphic" in2="effect1_backgroundBlur_989_1194" result="shape"/>
</filter>
<linearGradient id="paint0_linear_989_1194" x1="48" y1="0" x2="-7.43589" y2="13.2508" gradientUnits="userSpaceOnUse">
<stop stop-color="#0461FE"/>
<stop offset="1" stop-color="#023A98"/>
</linearGradient>
</defs>
</svg>
