<svg width="18" height="20" viewBox="0 0 18 20" fill="none" xmlns="http://www.w3.org/2000/svg">
<path d="M0.368652 0.736557C0.131836 1.04951 0 1.43449 0 1.84648V18.1532C0 18.5359 0.114136 18.8954 0.320282 19.1957L9.19296 9.94096L0.368652 0.736557Z" fill="#0461FE"/>
<path d="M10.0053 9.09348L12.8837 6.09116L2.76578 0.249646C2.32663 -0.00395534 1.82278 -0.0640749 1.35266 0.0680661L10.0053 9.09348Z" fill="#0461FE"/>
<path d="M10.0053 10.7883L1.26526 19.9048C1.4537 19.9681 1.64871 20 1.84387 20C2.16049 20 2.47726 19.9167 2.76581 19.7501L12.9565 13.8664L10.0053 10.7883Z" fill="#0461FE"/>
<path d="M16.8878 8.40303L13.9297 6.69511L10.8179 9.94081L14.0024 13.2626L16.8878 11.5967C17.4652 11.2634 17.8099 10.6664 17.8099 9.99986C17.8099 9.3332 17.4652 8.73628 16.8878 8.40303Z" fill="#0461FE"/>
</svg>
