<svg width="120" height="120" viewBox="0 0 120 120" fill="none" xmlns="http://www.w3.org/2000/svg">
<rect width="120" height="120" rx="24" fill="#0461FE"/>
<path d="M86.1223 70.5459C84.8163 70.5459 83.5101 71.5345 83.5101 73.1823V79.773C83.5101 82.0798 81.5507 83.7277 79.5917 83.7277H73.0611C71.7549 83.7277 70.449 84.7162 70.449 86.3641C70.449 88.0116 71.4285 89.0005 73.0611 89.0005H79.5917C84.4896 89.0005 88.7344 85.0459 88.7344 79.773V73.1823C88.7344 71.8641 87.4285 70.5459 86.1223 70.5459Z" fill="white"/>
<path d="M73.0611 36.2727H79.5917C81.8775 36.2727 83.5101 38.25 83.5101 40.2273V46.8181C83.5101 48.1363 84.4899 49.4545 86.1226 49.4545C87.7552 49.4545 88.7347 48.4659 88.7347 46.8181V40.2273C88.7347 35.2841 84.8163 31 79.5917 31H73.0611C71.7552 31 70.449 31.9886 70.449 33.6364C70.449 35.2841 71.7552 36.2727 73.0611 36.2727Z" fill="white"/>
<path d="M46.9386 83.7277H40.408C38.1223 83.7277 36.4896 81.7505 36.4896 79.773V73.1823C36.4896 71.8641 35.51 70.5459 33.8774 70.5459C32.2447 70.5459 31.2651 71.8641 31.2651 73.1823V79.773C31.2651 84.7162 35.1835 89.0005 40.408 89.0005H46.9386C48.2447 89.0005 49.5508 88.0116 49.5508 86.3641C49.5508 84.7162 48.2447 83.7277 46.9386 83.7277Z" fill="white"/>
<path d="M33.8776 49.4545C35.1837 49.4545 36.4899 48.4659 36.4899 46.8181V40.2273C36.4899 37.9204 38.4491 36.2727 40.4082 36.2727H46.9389C48.245 36.2727 49.5511 35.2841 49.5511 33.6364C49.5511 31.9886 48.245 31 46.9389 31H40.4082C35.5103 31 31.2654 35.2841 31.2654 40.2273V46.8181C31.2654 48.1363 32.5715 49.4545 33.8776 49.4545Z" fill="white"/>
<path d="M73.0614 79.7725C76.6534 79.7725 79.5923 76.8068 79.5923 73.1818V67.25H40.4084V73.1818C40.4084 76.8068 43.3472 79.7725 46.9391 79.7725H73.0614Z" fill="white"/>
<path d="M89.3878 57.3633H79.592V46.8179C79.592 43.1929 76.6531 40.2271 73.0611 40.2271H46.9388C43.3469 40.2271 40.4082 43.1929 40.4082 46.8179V58.0225H30.6123C29.3061 58.0225 28 59.0111 28 60.659C28 62.3065 28.9796 63.2951 30.6123 63.2951H89.3878C90.6938 63.2951 92 62.3065 92 60.659C92 59.0111 90.6938 57.3633 89.3878 57.3633Z" fill="white"/>
</svg>
