<svg width="48" height="48" viewBox="0 0 48 48" fill="none" xmlns="http://www.w3.org/2000/svg">
<g filter="url(#filter0_b_989_1078)">
<rect width="48" height="48" rx="8" fill="url(#paint0_linear_989_1078)"/>
<rect x="0.5" y="0.5" width="47" height="47" rx="7.5" stroke="#0461FE" stroke-opacity="0.2"/>
</g>
<path d="M36.2538 29.0908C35.619 29.0908 34.984 29.5681 34.984 30.3636V33.5453C34.984 34.6589 34.0316 35.4544 33.0793 35.4544H29.9047C29.2697 35.4544 28.6349 35.9317 28.6349 36.7272C28.6349 37.5225 29.111 37.9999 29.9047 37.9999H33.0793C35.4602 37.9999 37.5236 36.0908 37.5236 33.5453V30.3636C37.5236 29.7272 36.8888 29.0908 36.2538 29.0908Z" fill="white"/>
<path d="M29.9047 12.5455H33.0793C34.1904 12.5455 34.984 13.5 34.984 14.4545V17.6363C34.984 18.2727 35.4603 18.9091 36.254 18.9091C37.0476 18.9091 37.5238 18.4318 37.5238 17.6363V14.4545C37.5238 12.0682 35.619 10 33.0793 10H29.9047C29.2699 10 28.6349 10.4773 28.6349 11.2727C28.6349 12.0682 29.2699 12.5455 29.9047 12.5455Z" fill="white"/>
<path d="M17.2063 35.4544H14.0317C12.9206 35.4544 12.127 34.4999 12.127 33.5453V30.3636C12.127 29.7272 11.6508 29.0908 10.8571 29.0908C10.0635 29.0908 9.58728 29.7272 9.58728 30.3636V33.5453C9.58728 35.9317 11.492 37.9999 14.0317 37.9999H17.2063C17.8412 37.9999 18.4761 37.5225 18.4761 36.7272C18.4761 35.9317 17.8412 35.4544 17.2063 35.4544Z" fill="white"/>
<path d="M10.8571 18.9091C11.492 18.9091 12.127 18.4318 12.127 17.6363V14.4545C12.127 13.3409 13.0793 12.5455 14.0317 12.5455H17.2063C17.8412 12.5455 18.4761 12.0682 18.4761 11.2727C18.4761 10.4773 17.8412 10 17.2063 10H14.0317C11.6508 10 9.58728 12.0682 9.58728 14.4545V17.6363C9.58728 18.2727 10.2222 18.9091 10.8571 18.9091Z" fill="white"/>
<path d="M29.9047 33.5453C31.6508 33.5453 33.0794 32.1136 33.0794 30.3636V27.5H14.0317V30.3636C14.0317 32.1136 15.4603 33.5453 17.2063 33.5453H29.9047Z" fill="white"/>
<path d="M37.8412 22.7275H33.0794V17.6366C33.0794 15.8866 31.6508 14.4548 29.9047 14.4548H17.2063C15.4603 14.4548 14.0317 15.8866 14.0317 17.6366V23.0458H9.26984C8.63491 23.0458 8 23.523 8 24.3185C8 25.1139 8.47619 25.5911 9.26984 25.5911H37.8412C38.4761 25.5911 39.111 25.1139 39.111 24.3185C39.111 23.523 38.4761 22.7275 37.8412 22.7275Z" fill="white"/>
<defs>
<filter id="filter0_b_989_1078" x="-50" y="-50" width="148" height="148" filterUnits="userSpaceOnUse" color-interpolation-filters="sRGB">
<feFlood flood-opacity="0" result="BackgroundImageFix"/>
<feGaussianBlur in="BackgroundImageFix" stdDeviation="25"/>
<feComposite in2="SourceAlpha" operator="in" result="effect1_backgroundBlur_989_1078"/>
<feBlend mode="normal" in="SourceGraphic" in2="effect1_backgroundBlur_989_1078" result="shape"/>
</filter>
<linearGradient id="paint0_linear_989_1078" x1="48" y1="0" x2="-7.43589" y2="13.2508" gradientUnits="userSpaceOnUse">
<stop stop-color="#0461FE"/>
<stop offset="1" stop-color="#023A98"/>
</linearGradient>
</defs>
</svg>
