<svg width="120" height="120" viewBox="0 0 120 120" fill="none" xmlns="http://www.w3.org/2000/svg">
<rect width="120" height="120" rx="24" fill="#0461FE"/>
<path d="M53.4508 55.1306V51.7314C49.5796 49.8026 47.5451 45.4631 48.5385 41.2536C49.5319 37.0441 53.2918 34.072 57.617 34.0774C61.9421 34.0828 65.6946 37.0644 66.6775 41.2762C67.6603 45.4881 65.615 49.8226 61.739 51.7417V52.2794C63.1074 51.4625 64.8265 51.5184 66.139 52.4224C70.1693 48.5913 71.162 42.5482 68.569 37.6292C65.9759 32.7103 60.4293 30.1141 54.991 31.2742C49.5528 32.4344 45.5484 37.0678 45.1884 42.6167C44.8284 48.1657 48.2007 53.2777 53.4435 55.1306H53.4508Z" fill="white"/>
<path d="M58.6383 86.9277C58.0662 86.9277 57.6023 87.3915 57.6023 87.9638C57.6023 88.5359 58.0661 88.9998 58.6383 88.9998H75.2146C75.7867 88.9998 76.2506 88.536 76.2506 87.9638C76.2506 87.3916 75.7868 86.9277 75.2146 86.9277H58.6383Z" fill="white"/>
<path d="M42.8639 69.3013C45.2078 69.4793 47.3998 70.5295 49.0074 72.2446C49.5171 72.861 49.7005 73.1211 49.859 73.3479C50.7089 74.458 51.6324 75.5098 52.623 76.4964C53.5215 77.4823 54.5259 78.3663 55.6181 79.1319C57.4161 80.5904 58.6806 82.6032 59.2142 84.8559H75.2143C75.2826 84.8559 75.3469 84.8714 75.4143 84.8756C75.7147 84.3576 76.0359 83.823 76.4244 83.2449C78.3224 80.401 78.3224 78.5486 78.3224 74.4958V58.9557C78.3224 57.8113 77.3947 56.8836 76.2503 56.8836C75.106 56.8836 74.1783 57.8113 74.1783 58.9557V62.0638C74.1783 62.6359 73.7145 63.0998 73.1423 63.0998C72.57 63.0998 72.1062 62.636 72.1062 62.0638V56.8837C72.1062 55.7394 71.1785 54.8117 70.0342 54.8117C68.8898 54.8117 67.9621 55.7394 67.9621 56.8837V61.0278C67.9621 61.5999 67.4983 62.0638 66.9261 62.0638C66.3538 62.0638 65.89 61.6 65.89 61.0278V55.8476C65.89 54.7032 64.9623 53.7755 63.818 53.7755C62.6736 53.7755 61.7459 54.7032 61.7459 55.8476V59.9916C61.7459 60.5637 61.2821 61.0276 60.7099 61.0276C60.1378 61.0276 59.6739 60.5638 59.6739 59.9916V43.5916C59.7031 42.444 58.8468 41.466 57.7055 41.3434C57.1382 41.315 56.5841 41.5208 56.1729 41.9124C55.7616 42.3041 55.5292 42.8474 55.5299 43.4154L55.5195 66.2077C55.5202 66.9589 55.1128 67.6514 54.4555 68.0155C53.7913 68.3819 52.9804 68.3589 52.3379 67.9554C49.1875 65.9476 46.7518 64.9137 42.9827 65.1696C41.8972 65.2164 41.0321 66.0939 41.0009 67.18C40.9698 68.2661 41.7828 69.192 42.8639 69.3013Z" fill="white"/>
<path d="M64.8543 43.4152C64.8543 39.41 61.6074 36.1631 57.6022 36.1631C53.597 36.1631 50.3501 39.41 50.3501 43.4152C50.3481 45.7809 51.5103 47.9962 53.4582 49.3391V43.4152C53.4619 42.2794 53.9289 41.1942 54.7511 40.4108C55.5714 39.6198 56.6842 39.2068 57.8218 39.2712C60.0688 39.4422 61.7912 41.3382 61.7462 43.5914V49.3475C63.693 48 64.8547 45.7829 64.8543 43.4152Z" fill="white"/>
</svg>
