<svg width="164" height="36" viewBox="0 0 164 36" fill="none" xmlns="http://www.w3.org/2000/svg">
<path d="M0 7.3716V5.8857C0 3.54854 1.89949 1.65479 4.24182 1.65479H5.79262V7.37244H8.02043V11.5433H2.65029L5.79262 12.1957V17.5859C5.79262 18.8069 6.21765 19.8443 7.06771 20.699C7.91777 21.5536 8.97483 21.9945 10.2397 22.0216V27.8001C7.34343 27.7324 4.91202 26.7187 2.94721 24.7581C0.982404 22.7984 0 20.4079 0 17.5859V17.3616C0.0135738 17.3346 0.0203612 17.3075 0.0203612 17.2804H0V11.5424" fill="#F2F2F2"/>
<path d="M20.7093 1.45605H10.1421C10.0598 1.45605 9.99365 1.52206 9.99365 1.60414V7.1001C9.99365 7.18218 10.0598 7.24818 10.1421 7.24818H19.8822C20.3394 7.24818 20.7102 7.61796 20.7102 8.07405V12.6654C20.7102 12.7475 20.7764 12.8135 20.8586 12.8135H26.3696C26.4519 12.8135 26.5181 12.7475 26.5181 12.6654V2.81502C26.5181 2.06446 25.9081 1.45605 25.1556 1.45605H20.711H20.7093Z" fill="#0461FE"/>
<path d="M20.7094 27.8004H13.1488C13.0759 27.8004 13.0156 27.7412 13.0156 27.6676V22.1403C13.0156 22.0675 13.075 22.0074 13.1488 22.0074H19.8976C20.3463 22.0074 20.7103 21.6444 20.7103 21.1968V15.6255C20.7103 15.5528 20.7697 15.4927 20.8435 15.4927H26.385C26.4579 15.4927 26.5182 15.5519 26.5182 15.6255V26.4558C26.5182 27.1979 25.915 27.7996 25.171 27.7996H20.7111L20.7094 27.8004Z" fill="#0461FE"/>
<path d="M42.7185 6.2897H34.7804V1.10938H56.8887V6.2897H48.9506V27.4536H42.7185V6.2897Z" fill="#F2F2F2"/>
<path d="M64.16 8.50933V10.9142C65.2731 9.0272 67.1649 7.80615 69.2417 7.80615C69.984 7.80615 70.7628 7.99147 71.5043 8.28678V13.2082C70.4659 12.7639 69.2044 12.5422 68.3883 12.5422C65.9772 12.5422 64.3823 14.5401 64.3823 17.3892V27.4528H58.8179V8.50933H64.16Z" fill="#F2F2F2"/>
<path d="M89.4208 8.50945H94.9852V27.453H89.4208V24.8255C87.937 26.9342 85.6744 28.1925 82.9664 28.1925C77.6243 28.1925 73.8779 23.9743 73.8779 17.9808C73.8779 11.9873 77.6243 7.76904 82.9664 7.76904C85.6744 7.76904 87.937 9.02732 89.4208 11.136V8.50861V8.50945ZM89.3835 17.9816C89.3835 14.9108 87.3058 12.6532 84.4129 12.6532C81.52 12.6532 79.4423 14.91 79.4423 17.9816C79.4423 21.0533 81.52 23.31 84.4129 23.31C87.3058 23.31 89.3835 21.0533 89.3835 17.9816Z" fill="#F2F2F2"/>
<path d="M99.8074 0H105.372V15.5029L111.789 8.51006H118.54L110.305 17.3899L118.8 27.4536H112.011L105.371 19.3133V27.4536H99.8065V0H99.8074Z" fill="#F2F2F2"/>
<path d="M122.473 31.2276C123.141 31.4493 124.068 31.5974 124.736 31.5974C127.109 31.5974 128.038 29.9321 128.89 27.6381L119.913 8.50928H125.996L131.153 20.7188L135.382 8.50928H141.168L133.823 28.1187C132.043 33.0029 130.002 36.0001 126.145 36.0001C124.958 36.0001 123.511 35.7411 122.472 35.3341V31.2267L122.473 31.2276Z" fill="#F2F2F2"/>
<path d="M163.5 17.9813C163.5 24.012 159.197 28.193 152.928 28.193C146.658 28.193 142.393 24.012 142.393 17.9813C142.393 11.9505 146.696 7.76953 152.928 7.76953C159.16 7.76953 163.5 11.9133 163.5 17.9813ZM157.899 17.9813C157.899 14.8732 155.859 12.6529 152.929 12.6529C149.998 12.6529 147.994 14.8732 147.994 17.9813C147.994 21.0893 150.035 23.3097 152.929 23.3097C155.822 23.3097 157.899 21.0893 157.899 17.9813Z" fill="#F2F2F2"/>
</svg>
