<?xml version="1.0" encoding="UTF-8"?>
<svg id="Layer_1" data-name="Layer 1" xmlns="http://www.w3.org/2000/svg" viewBox="0 0 2160 1080">
  <g>
    <path d="M116.38,414.4v-17.56c0-27.62,22.39-50,50-50h18.28v67.57h26.26v49.29h-63.3l37.04,7.71v63.7c0,14.43,5.01,26.69,15.03,36.79,10.02,10.1,22.48,15.31,37.39,15.63v68.29c-34.14-.8-62.8-12.78-85.96-35.95-23.16-23.16-34.74-51.41-34.74-84.76v-2.65s0,0,0,0c.16-.32,.24-.64,.24-.96h-.24v-67.81"/>
    <path d="M360.49,344.49h-124.56c-.97,0-1.75,.78-1.75,1.75v64.95c0,.97,.78,1.75,1.75,1.75h114.81c5.39,0,9.76,4.37,9.76,9.76v54.26c0,.97,.78,1.75,1.75,1.75h64.96c.97,0,1.75-.78,1.75-1.75v-116.41c0-8.87-7.19-16.06-16.06-16.06h-52.39Z" fill="#0461fe"/>
    <path d="M360.49,655.82h-89.12c-.86,0-1.57-.7-1.57-1.57v-65.32c0-.86,.7-1.57,1.57-1.57h79.55c5.29,0,9.58-4.29,9.58-9.58v-65.84c0-.86,.7-1.57,1.57-1.57h65.32c.86,0,1.57,.7,1.57,1.57v127.99c0,8.77-7.11,15.88-15.88,15.88h-52.57Z" fill="#0461fe"/>
  </g>
  <g>
    <path d="M619.92,401.61h-93.57v-61.22h260.6v61.22h-93.57v250.11h-73.46v-250.11Z"/>
    <path d="M872.66,427.84v28.42c13.12-22.3,35.42-36.73,59.9-36.73,8.75,0,17.93,2.19,26.67,5.68v58.16c-12.24-5.25-27.11-7.87-36.73-7.87-28.42,0-47.22,23.61-47.22,57.28v118.93h-65.59v-223.87h62.97Z"/>
    <path d="M1170.42,427.84h65.59v223.87h-65.59v-31.05c-17.49,24.92-44.16,39.79-76.08,39.79-62.97,0-107.13-49.85-107.13-120.68s44.16-120.68,107.13-120.68c31.92,0,58.59,14.87,76.08,39.79v-31.05Zm-.44,111.94c0-36.29-24.49-62.97-58.59-62.97s-58.59,26.67-58.59,62.97,24.49,62.97,58.59,62.97,58.59-26.67,58.59-62.97Z"/>
    <path d="M1292.85,327.28h65.59v183.21l75.64-82.64h79.58l-97.07,104.94,100.13,118.93h-80.02l-78.27-96.2v96.2h-65.59V327.28Z"/>
    <path d="M1560.02,696.32c7.87,2.62,18.8,4.37,26.67,4.37,27.98,0,38.92-19.68,48.97-46.79l-105.82-226.06h71.71l60.78,144.29,49.85-144.29h68.21l-86.58,231.74c-20.99,57.72-45.04,93.14-90.51,93.14-13.99,0-31.05-3.06-43.29-7.87v-48.54Z"/>
    <path d="M2043.62,539.78c0,71.27-50.72,120.68-124.62,120.68s-124.18-49.41-124.18-120.68,50.72-120.68,124.18-120.68,124.62,48.97,124.62,120.68Zm-66.02,0c0-36.73-24.05-62.97-58.59-62.97s-58.16,26.24-58.16,62.97,24.05,62.97,58.16,62.97,58.59-26.24,58.59-62.97Z"/>
  </g>
</svg>