<svg width="48" height="48" viewBox="0 0 48 48" fill="none" xmlns="http://www.w3.org/2000/svg">
<g filter="url(#filter0_b_989_1210)">
<rect width="48" height="48" rx="8" fill="url(#paint0_linear_989_1210)"/>
<rect x="0.5" y="0.5" width="47" height="47" rx="7.5" stroke="#0461FE" stroke-opacity="0.2"/>
</g>
<path fill-rule="evenodd" clip-rule="evenodd" d="M29.7583 18.8243L30.6198 19.1977C30.6202 19.1979 30.6206 19.1981 30.621 19.1982C31.0211 19.3615 31.2021 19.4354 31.2913 19.5805C31.5756 20.0434 31.5802 20.6648 31.5691 21.2637C31.5685 21.2965 31.5417 21.3228 31.5089 21.3228H29.6577C29.6299 21.3228 29.6065 21.3046 29.5995 21.2778C29.2238 19.839 27.4051 19.3222 26.3325 20.3947C26.0918 20.6354 25.9137 20.9386 25.8248 21.2778C25.8177 21.3046 25.7943 21.3227 25.7666 21.3227H22.2835C22.2558 21.3227 22.2324 21.3046 22.2253 21.2777C21.8497 19.8391 20.031 19.3221 18.9583 20.3947C18.7177 20.6353 18.5395 20.9385 18.4506 21.2778C18.4435 21.3046 18.4201 21.3227 18.3924 21.3227H16.0993C16.0805 21.3227 16.0643 21.3149 16.0525 21.3004C16.0407 21.2858 16.0365 21.2684 16.0403 21.2501C16.3958 19.5587 17.0308 19.3099 18.7202 19.0504L20.3993 18.7877L20.3994 18.7879C21.0354 18.7027 21.5657 18.4559 22.0398 18.0256C22.6529 17.4691 22.9811 17.189 23.3867 17.064C23.9309 16.8963 25.0003 16.9323 26.0685 16.9317C27.0518 16.9311 27.5585 16.9308 27.8981 17.0767C28.2842 17.2425 28.658 17.7476 29.2396 18.4794C29.3284 18.5911 29.5187 18.7085 29.7561 18.8232C29.7568 18.8236 29.7575 18.824 29.7583 18.8243ZM15.9532 13.3486H30.827C30.8466 13.3486 30.8634 13.3402 30.8751 13.3246C30.8869 13.309 30.8903 13.2906 30.8849 13.2718L30.2061 10.91C30.206 10.9096 30.2058 10.9091 30.2057 10.9086C30.0975 10.5647 29.9189 10.322 29.6153 10.1539C29.3461 10.005 29.0202 9.95631 28.7002 10.0426C28.6991 10.0428 28.6983 10.0431 28.6972 10.0435C28.6853 10.0474 28.6731 10.0508 28.6608 10.0537L15.9386 13.23C15.909 13.2373 15.8897 13.2654 15.8934 13.2957C15.8972 13.326 15.9226 13.3486 15.9532 13.3486ZM26.9711 21.0333C26.5619 21.4425 26.5619 22.1061 26.9711 22.5153C27.6294 23.1736 28.76 22.7053 28.76 21.7743C28.7601 20.8433 27.6293 20.3751 26.9711 21.0333ZM33.0206 14.2518H14.2267C13.553 14.2518 13 14.8047 13 15.4785V36.7733C13 37.4472 13.5529 38 14.2267 38H33.0207C33.6944 38 34.2474 37.4471 34.2474 36.7733V15.4785C34.2473 14.8048 33.6944 14.2518 33.0206 14.2518ZM20.3379 20.7264C19.759 20.7264 19.29 21.1955 19.29 21.7744C19.29 22.7053 20.4207 23.1737 21.0789 22.5154C21.7372 21.8571 21.2689 20.7264 20.3379 20.7264ZM17.1303 24.7811H30.1169C30.739 24.7811 31.2464 25.2885 31.2464 25.9105V27.0557C31.2464 27.6778 30.739 28.1852 30.1169 28.1852H17.1303C16.5082 28.1852 16.0009 27.6778 16.0009 27.0557V25.9105C16.001 25.2885 16.5083 24.7811 17.1303 24.7811ZM16.4525 30.8547H30.7947C31.0441 30.8547 31.2464 31.0569 31.2464 31.3063C31.2464 31.5557 31.0441 31.758 30.7947 31.758H16.4525C16.2031 31.758 16.0009 31.5557 16.0009 31.3063C16.001 31.0569 16.2031 30.8547 16.4525 30.8547ZM16.4525 34.4274H30.7947C31.0441 34.4274 31.2464 34.6296 31.2464 34.879C31.2464 35.1284 31.0441 35.3307 30.7947 35.3307H16.4525C16.2031 35.3307 16.0009 35.1284 16.0009 34.879C16.001 34.6296 16.2031 34.4274 16.4525 34.4274Z" fill="white"/>
<defs>
<filter id="filter0_b_989_1210" x="-50" y="-50" width="148" height="148" filterUnits="userSpaceOnUse" color-interpolation-filters="sRGB">
<feFlood flood-opacity="0" result="BackgroundImageFix"/>
<feGaussianBlur in="BackgroundImageFix" stdDeviation="25"/>
<feComposite in2="SourceAlpha" operator="in" result="effect1_backgroundBlur_989_1210"/>
<feBlend mode="normal" in="SourceGraphic" in2="effect1_backgroundBlur_989_1210" result="shape"/>
</filter>
<linearGradient id="paint0_linear_989_1210" x1="48" y1="0" x2="-7.43589" y2="13.2508" gradientUnits="userSpaceOnUse">
<stop stop-color="#0461FE"/>
<stop offset="1" stop-color="#023A98"/>
</linearGradient>
</defs>
</svg>
